<svg id="Layer_1" data-name="Layer 1" xmlns="http://www.w3.org/2000/svg" viewBox="0 0 928.65 928.65"><defs><style>.cls-1{fill:#222222;}</style></defs><title>SSZ-Logo-2</title><path class="cls-1" d="M449.8,510.39h0l0,0C450.16,510.45,450.16,510.4,449.8,510.39Z" transform="translate(-50.46 -50.46)"/><path class="cls-1" d="M301.46,356.56l-0.07,0,0.42,0.12Z" transform="translate(-50.46 -50.46)"/><path class="cls-1" d="M448.09,408.28l0.63-1.54a191.78,191.78,0,0,0,9.06-28.53c2.08-9,3.44-17,2.63-26.44l-0.08-.74c-0.1-.62-0.22-1.23-0.35-1.84-0.19-.85-0.46-1.67-0.67-2.5-0.06-.22-0.25-0.74-0.38-1.09s-0.43-.7-0.65-1.09a26.18,26.18,0,0,0-2.19,2.22,16.47,16.47,0,0,0-2.74,4.18c0.12-.13-1,2.72-0.88,2.42-0.28.86-.53,1.72-0.77,2.59A105.4,105.4,0,0,0,448.93,370c-1.71,12.85-2.55,25.86-3.44,38.79q-0.2,2.94-.41,5.89c0.76-1.51,1.47-3.05,2.18-4.6C447.29,410.09,448,408.52,448.09,408.28Z" transform="translate(-50.46 -50.46)"/><path class="cls-1" d="M525.89,354.12c0.29-2.05.64-6.33,0.7-9.27,0-1.4,0-2.8,0-4.21,0-.31-0.35-3.46-0.26-3.19-0.26-1.42-.64-2.78-1-4.18-0.59-2.4.17,0.18-.75-1.9-3.34,3.29-5.25,5.54-6.79,11.11-3.57,12.9-4.3,26.67-5.06,40-0.32,5.66-.55,11.33-0.73,17A151.49,151.49,0,0,0,521,375.34,147.15,147.15,0,0,0,525.89,354.12Z" transform="translate(-50.46 -50.46)"/><path class="cls-1" d="M457.83,343.45c0.44-1.51-1.08.53,0,0h0Z" transform="translate(-50.46 -50.46)"/><path class="cls-1" d="M450.24,510.68l0.27,0.16S450.46,510.76,450.24,510.68Z" transform="translate(-50.46 -50.46)"/><path class="cls-1" d="M645.22,467.73l0-.08h0Z" transform="translate(-50.46 -50.46)"/><path class="cls-1" d="M645.13,467.53l-0.09,0-0.06,0h0l0.16,0.17h0A0.47,0.47,0,0,0,645.13,467.53Z" transform="translate(-50.46 -50.46)"/><path class="cls-1" d="M525.33,330c0.59,0,1.11,0,1.14,0C525.7,329.53,525.38,329.73,525.33,330Z" transform="translate(-50.46 -50.46)"/><path class="cls-1" d="M645.15,467.64h0l-0.29-.12C645.06,467.79,645.16,467.77,645.15,467.64Z" transform="translate(-50.46 -50.46)"/><path class="cls-1" d="M564,484.83a25.6,25.6,0,0,0,7.22-3.29,16.84,16.84,0,0,0,4.52-3.93,21.05,21.05,0,0,0,3.05-6.27c3.14-9.9,2.83-20.06,1.7-30.25-5.17,8.19-10.28,16.42-15.55,24.54-5.45,8.38-11,16.63-16.95,24.54a10.2,10.2,0,0,1,4.22-2.07C556.15,487.14,560.11,486.14,564,484.83Z" transform="translate(-50.46 -50.46)"/><path class="cls-1" d="M300.41,483.34l0.05,0.14h0l-0.05-.14h0Z" transform="translate(-50.46 -50.46)"/><path class="cls-1" d="M376.33,467.41h0l-0.09,0h0Z" transform="translate(-50.46 -50.46)"/><path class="cls-1" d="M300.47,483.48a0.46,0.46,0,0,0,.62,0l-0.36-.08Z" transform="translate(-50.46 -50.46)"/><path class="cls-1" d="M645.14,467.54l0,0v0h0Z" transform="translate(-50.46 -50.46)"/><path class="cls-1" d="M143.9,559.33a69.48,69.48,0,0,0-16.42-4.7c0.13,0-3.11-.22-4.15-0.22-0.73,0-1.47,0-2.2.07-0.23.06-1.51,0.26-1.73,0.31a6.23,6.23,0,0,1-.62.1c-0.16.08-.3,0.18-0.46,0.26,0,0.25,0,.52.06,0.72,0.13,0.59.29,1.17,0.46,1.75,0.06,0.21.54,1.54,0.51,1.55,3.25,7.59,9.34,11.11,18.22,14,2.26,0.75,4.56,1.4,6.89,1.92,1,0.23,2.05.42,3.08,0.62l0.18,0h0.14c0.66,0,1.36,0,2,0-0.77-.05-1-0.19,1,0l0.49-.06a155.23,155.23,0,0,0,15.27-3.53c-2.17-1.53-4.33-3.08-6.58-4.46A113.26,113.26,0,0,0,143.9,559.33Z" transform="translate(-50.46 -50.46)"/><path class="cls-1" d="M376.33,467.41l-0.11,0a0.83,0.83,0,0,0,.67,0,1,1,0,0,1-.55,0l0.05,0Z" transform="translate(-50.46 -50.46)"/><path class="cls-1" d="M376.14,467.32l0.11,0S376.28,467.3,376.14,467.32Z" transform="translate(-50.46 -50.46)"/><path class="cls-1" d="M300,374.76c-0.07.17,0.35-2.49,0.4-3.28,0.12-1.75.19-3.5,0.19-5.25,0-1.6-.08-3.2-0.19-4.8,0-.32,0-0.53,0-0.7l-0.07-.34c-0.11-.61-0.23-1.23-0.37-1.83-0.06-.23-0.16-0.89-0.26-1.48l-0.31.1-0.35.09-0.15.09c-0.45.26-.89,0.51-1.33,0.78-0.19.19-1.07,0.91-1.24,1.13a6.38,6.38,0,0,1-.64.76l-0.15.23a33.36,33.36,0,0,0-2.83,5.3,93.45,93.45,0,0,0-4.48,15.37c-3.13,13.77-4.55,27.65-5.5,41.57,2.13-4.15,4.22-8.31,6.18-12.54A151.3,151.3,0,0,0,300,374.76Z" transform="translate(-50.46 -50.46)"/><path class="cls-1" d="M299.55,356.15c0-.12,0-0.14,0,0h0Z" transform="translate(-50.46 -50.46)"/><path class="cls-1" d="M299.43,355.91c-0.11-.21-0.15-0.07,0,0.16Z" transform="translate(-50.46 -50.46)"/><path class="cls-1" d="M646.39,466.73c-0.24.15-.5,0.28-0.75,0.41C646.29,466.94,647.1,466.38,646.39,466.73Z" transform="translate(-50.46 -50.46)"/><path class="cls-1" d="M151.23,575.8l-0.31,0h-0.14Z" transform="translate(-50.46 -50.46)"/><path class="cls-1" d="M150.78,575.77h-0.87A7.72,7.72,0,0,0,150.78,575.77Z" transform="translate(-50.46 -50.46)"/><path class="cls-1" d="M301,483.36h0l-0.09,0a0.84,0.84,0,0,0,.21.11,0.43,0.43,0,0,0,.07-0.21,0.5,0.5,0,0,1-.2.08h0Z" transform="translate(-50.46 -50.46)"/><path class="cls-1" d="M299.86,483.66l-0.19.12,0.31-.16Z" transform="translate(-50.46 -50.46)"/><path class="cls-1" d="M644.85,467.33l0.22,0.07-0.08-.13-0.15,0h0Z" transform="translate(-50.46 -50.46)"/><path class="cls-1" d="M185.64,559.09l-0.31-.12-0.84-.3Z" transform="translate(-50.46 -50.46)"/><path class="cls-1" d="M300.47,483.5v0C301.22,485.48,300.7,483.78,300.47,483.5Z" transform="translate(-50.46 -50.46)"/><path class="cls-1" d="M300,483.62l0.07,0C300.12,483.55,300.12,483.54,300,483.62Z" transform="translate(-50.46 -50.46)"/><path class="cls-1" d="M300.47,483.48h0v0Z" transform="translate(-50.46 -50.46)"/><path class="cls-1" d="M645.64,467.13h0l-0.18.1Z" transform="translate(-50.46 -50.46)"/><path class="cls-1" d="M185.71,559.11l-0.07,0Z" transform="translate(-50.46 -50.46)"/><path class="cls-1" d="M192.82,559.6l-1.06.22A4.55,4.55,0,0,0,192.82,559.6Z" transform="translate(-50.46 -50.46)"/><path class="cls-1" d="M644.57,467.22h0.09l-0.08-.14a1.25,1.25,0,0,1-.23-0.23l0.11,0v0C644.22,466.78,644.13,466.92,644.57,467.22Z" transform="translate(-50.46 -50.46)"/><path class="cls-1" d="M191.76,559.82h-0.09l-0.23.06Z" transform="translate(-50.46 -50.46)"/><path class="cls-1" d="M644.66,467.23l0,0.07,0.09,0h0l-0.1-.1h-0.08Z" transform="translate(-50.46 -50.46)"/><path class="cls-1" d="M645,467.28h0l0,0h0Z" transform="translate(-50.46 -50.46)"/><path class="cls-1" d="M727.9,449.81c-0.24-.06-0.21,0,0,0h0Z" transform="translate(-50.46 -50.46)"/><path class="cls-1" d="M645.11,467.46h0l0,0Z" transform="translate(-50.46 -50.46)"/><path class="cls-1" d="M645.09,467.43h0v0Z" transform="translate(-50.46 -50.46)"/><path class="cls-1" d="M728.56,449.9l-0.12-.12,0.12,0.12h0Z" transform="translate(-50.46 -50.46)"/><path class="cls-1" d="M644.94,467.42l0,0H645Z" transform="translate(-50.46 -50.46)"/><path class="cls-1" d="M784.36,438.43l0.08,0.13C785.11,438.75,785.62,438.72,784.36,438.43Z" transform="translate(-50.46 -50.46)"/><path class="cls-1" d="M782.75,438.16c-1.7-.13-1.08.2-0.37,0.22Z" transform="translate(-50.46 -50.46)"/><circle class="cls-1" cx="728.69" cy="450.03" transform="translate(-63.82 827.21) rotate(-61.65)"/><path class="cls-1" d="M783.07,438.25H783l-0.26.12A0.89,0.89,0,0,0,783.07,438.25Z" transform="translate(-50.46 -50.46)"/><path class="cls-1" d="M766,278.16c-0.09-.61-0.16-0.94,0,0v0Z" transform="translate(-50.46 -50.46)"/><path class="cls-1" d="M728.9,450.09l-0.05,0h0Z" transform="translate(-50.46 -50.46)"/><path class="cls-1" d="M727.31,408.66c0.07-.54.18-1.45,0,0h0Z" transform="translate(-50.46 -50.46)"/><path class="cls-1" d="M631.08,605.15l-0.11,0C631.29,605.31,631.28,605.26,631.08,605.15Z" transform="translate(-50.46 -50.46)"/><path class="cls-1" d="M630.16,605.2c-0.08-.11-0.13-0.15-0.11-0.06l0.09,0.07h0Z" transform="translate(-50.46 -50.46)"/><path class="cls-1" d="M630.19,605.24l-0.09,0a8.58,8.58,0,0,0,.43.84l-0.09-.31A2.18,2.18,0,0,0,630.19,605.24Z" transform="translate(-50.46 -50.46)"/><path class="cls-1" d="M630.9,605.06l-0.13,0,0.13,0.06,0.13,0Z" transform="translate(-50.46 -50.46)"/><path class="cls-1" d="M376.06,467.33l0.16,0.06,0,0-0.11,0h-0.08Z" transform="translate(-50.46 -50.46)"/><path class="cls-1" d="M631,605.13l0,0,0.23-.05h-0.05Z" transform="translate(-50.46 -50.46)"/><path class="cls-1" d="M629.38,604a1.28,1.28,0,0,1-.11-0.17l0.1,0.2S629.37,604,629.38,604Z" transform="translate(-50.46 -50.46)"/><path class="cls-1" d="M629.63,605.45c-0.46.19-.73,0.34,0,0h0Z" transform="translate(-50.46 -50.46)"/><path class="cls-1" d="M629.83,604.64l-0.11-.12-0.08,0,0.08,0a2.46,2.46,0,0,1-.32-0.4,3.82,3.82,0,0,0,.65,1,0.16,0.16,0,0,1,0,0A0.78,0.78,0,0,0,629.83,604.64Z" transform="translate(-50.46 -50.46)"/><path class="cls-1" d="M629.76,604.54h0l0,0h0Z" transform="translate(-50.46 -50.46)"/><path class="cls-1" d="M843.35,298l-0.24,0,0.94-.12Z" transform="translate(-50.46 -50.46)"/><path class="cls-1" d="M737.1,639.59h0C736.89,639.62,736.92,639.61,737.1,639.59Z" transform="translate(-50.46 -50.46)"/><path class="cls-1" d="M885.46,545.21a0.53,0.53,0,0,0,.39,0c0.8-.64-0.25-0.19-0.55,0h0.06c0.2,0,.39-0.1.59-0.14A2.42,2.42,0,0,0,885.46,545.21Z" transform="translate(-50.46 -50.46)"/><path class="cls-1" d="M770.93,601.55c0-.27-0.08-0.54-0.14-0.8-0.31-1.45-.62-2.89-1-4.32-0.33-1.12-.72-2.22-1.12-3.32l0-.06-0.09-.17c-0.32-.64-0.62-1.28-1-1.91-0.66-1.24-1.42-2.4-2.17-3.58l-0.16-.24c-0.31-.38-0.62-0.76-1-1.12-0.82-.88-1.68-1.7-2.55-2.52l-0.17-.16c-0.36-.26-0.72-0.51-1.1-0.73-0.68-.4-3.61-1.63-2.62-1.37-0.74-.23-1.49-0.45-2.24-0.66-0.36-.1-0.61-0.18-0.78-0.24a4.35,4.35,0,0,1-.66.08c-0.94.06-1.88,0-2.81,0.08,0.33,0-2.47.61-3.16,0.82l-1.33.49c-0.55.26-1.56,0.73-1.48,0.69a55.75,55.75,0,0,0-5.85,3.54v0.09l-0.09.62c-0.39,5.37-.71,10.74-1,16.11-0.4,7-.77,13.94-1.2,20.91-0.2,3.24-.53,6.49-0.63,9.73a21.68,21.68,0,0,0,.31,5.16l0.23,0.7,0.74,0.14-0.66.08h0l2.17-.26c-1.51.17,2-.42,1.77-0.37,0.75-.17,1.49-0.36,2.22-0.57a54.68,54.68,0,0,0,10.25-4c1.36-.69,2.69-1.44,4-2.26a19.25,19.25,0,0,0,3-2.22c1.27-1.15,2.48-2.35,3.64-3.61,0.28-.31.56-0.64,0.84-1,0.09-.14.66-0.94,0.82-1.2,0.76-1.24,1.49-2.47,2.2-3.74,0.21-.38.41-0.79,0.59-1.2,0.09-.21.2-0.47,0.25-0.6a47.68,47.68,0,0,0,1.49-4.93c0.12-.5.51-3,0.56-3a58,58,0,0,0,.11-7.47C771.1,603.06,771,601.86,770.93,601.55Z" transform="translate(-50.46 -50.46)"/><path class="cls-1" d="M631.29,605h-0.2l0.17,0,0.18,0h-0.16Z" transform="translate(-50.46 -50.46)"/><path class="cls-1" d="M883.35,559.34c0.13-.31.36-0.89,0.48-1.23,0.55-1.5,1.09-3,1.53-4.55,0.23-.81.41-1.62,0.61-2.44,0-.13.08-0.42,0.13-0.71,0-.47,0-1.39,0-2,0-.11-0.08-0.25-0.14-0.45-0.18-.61-0.3-1.23-0.5-1.84a2.83,2.83,0,0,0-.33-0.79c-0.12.05-.15,0.06,0,0-0.06,0-.08.12-0.15,0q-0.81.21-1.62,0.46l-0.48.14a5.48,5.48,0,0,1-.57.35c-0.89.51-1.79,1-2.66,1.55a44,44,0,0,0-8.8,8.15,13.22,13.22,0,0,0-1.21,1.65c-0.53.81-1,1.63-1.53,2.47-0.24.41-.63,1.25-0.73,1.42q-0.34,1-.6,2a17.17,17.17,0,0,0-.82,5.4A57.8,57.8,0,0,0,866,576a52.08,52.08,0,0,0,1.71,9.79c2.9-4,5.7-8.2,8.39-12.69,2.19-3.66,4.25-7.41,6.08-11.27C882.61,561,883,560.17,883.35,559.34Z" transform="translate(-50.46 -50.46)"/><path class="cls-1" d="M514.79,50.46c-256.44,0-464.32,207.88-464.32,464.32S258.35,979.11,514.79,979.11,979.11,771.22,979.11,514.79,771.22,50.46,514.79,50.46ZM352.19,539.75a36.41,36.41,0,0,1-3.42-3.43c-3.12,3-6.1,6.09-9.39,8.88-8.7,7.38-20.94,17.32-33.25,15.33-4.73-.14-9.27-3.26-9.13-9.38,0.25-10.69,2.51-21.41,3.68-32,0.65-5.93,1.18-11.88,1.37-17.85,0.09-2.84.1-5.68,0-8.52-0.06-1.3-.16-2.6-0.29-3.89v-0.09c-0.06-.42-0.13-0.83-0.21-1.24-0.25-1.19-.61-2.34-0.89-3.51a4.26,4.26,0,0,0-.15-0.47l0,0h0l-0.41.11c-0.2.13-.91,0.53-0.37,0.18l0,0c-0.45.25-.92,0.49-1.35,0.77a18.32,18.32,0,0,0-2.48,1.76,82.72,82.72,0,0,0-21.69,28.3c-2.57,17.27-5.58,34.9-11.8,51.24-1.89,5-6,8.1-11.42,7.46-4.85-.58-9.31-5.11-9-10.22a215.32,215.32,0,0,1,2.5-23.42c-0.57.82-1.12,1.65-1.7,2.46a164.3,164.3,0,0,1-16.07,19.79,63,63,0,0,1-16.63,14.94c-15.38,9.59-33.87,15.49-51.62,18.84-15.53,2.94-33.15-2.36-45.68-11.83-13.9-10.5-23.93-37.71-3.69-47.48,8.67-4.18,18.81-3.32,27.93-1.28,12.53,2.8,24.61,8.67,35.43,15.48,4.08,2.57,7.9,5.52,12.07,7.95a8.19,8.19,0,0,0,1,.42l0.38,0.14a7.44,7.44,0,0,0,.75.23c0.81,0.18,3.25.41,2.29,0.43l2.83,0.06h0.08c1.26-.34,1.43-0.32,1.15-0.22l0.27-.06c1.22-.37,2.43-0.7,3.63-1.12h0l0.13-.07,1.32-.66a46.06,46.06,0,0,0,4.27-2.55c0.55-.37,1.09-0.76,1.64-1.14l0.34-.23,0.16-.13a87.84,87.84,0,0,0,7.13-6.53l0.05-.06a42.45,42.45,0,0,0,3.36-6.24c6-13.71,5.44-32.87-7-43.56-6.81-5.84-14-5.36-23.58-5-10.38.39-21,.68-30.61-4-19.53-9.45-25.78-36.52-21.91-56.08,3.94-19.89,18-36.88,33.64-49,15-11.59,33.72-20.44,53-20.46,9.45,0,12.31,10.17,8.63,16.39a10.92,10.92,0,0,1-1.24,4.63c-2.72,5.2-4.35,11.32-7.36,16.85-2.64,4.84-9.28,6.37-13.93,3.65a10.4,10.4,0,0,1-3.65-13.93c0.67-1.24,1.26-2.5,1.83-3.75-2,.63-3.81,1.28-5,1.79-16.66,7-31.68,19.43-40.32,35a43,43,0,0,0-5.82,22.22c0.21,6.85,3,16.27,8.77,21.91,2.47,2.41,6.25,3.37,9.43,3.68a104.67,104.67,0,0,0,13.85,0c10.45-.38,21.2-0.39,30.58,4.88,12.81,7.2,20.92,19.88,24,33.81,4-6.88,7.79-13.88,11.45-20.93,3.13-6,6.14-12.11,9.09-18.22q0.61-7.8.94-15.64c0.65-15.67,1.27-31.28,3-46.88a285.87,285.87,0,0,1,5.5-34.23c2.49-10.53,5.82-22.33,13.78-30.16,5.91-5.81,15.7-9.69,23.94-7.38,9.12,2.55,13.36,11.62,14.63,20.26,3.15,21.29-4.38,43-13,62.1-6,13.3-13.43,26-19.64,39.2q-3.09,6.6-6.21,13.19a44.09,44.09,0,0,1,7.95-5.18c13.14-6.53,26.46-.64,30.45,13.36,3.49,12.25,1.8,26.13.34,38.56-0.79,6.79-1.53,11.89-2.43,18.28a108.58,108.58,0,0,0,10.88-9.41c3.27-3.16,6.28-6.46,9.72-9.4a85.09,85.09,0,0,1-3.21-17.1c-1.23-14,1.91-26.59,11.1-37.29,8-9.28,21.53-19.15,34.52-16,14.42,3.54,19.12,21.47,14.76,34.13-4.2,12.2-13.06,22.58-21.83,31.79-3.25,3.41-6.62,6.68-10.08,9.86,0.44,0.49,1,1,1.81,1.78a19.3,19.3,0,0,0,2.57,1.62s1.08,0.23,1.55.36l0.69,0a12.66,12.66,0,0,0,2.34-.22,14.07,14.07,0,0,0,5.48-2.19c4.23-2.5,8-6.41,11.33-10.59a8.23,8.23,0,0,1,1.07-2.51c11.23-17.43,21.36-35.42,31.2-53.59,0-.14,0-0.27,0-0.42,0.48-23.95,1.67-47.8,3.84-71.67,1.13-12.38,2-25.25,5.66-37.18,3.46-11.12,11.55-23,23.66-25.67,14.33-3.13,23.73,10.55,25.89,23,2,11.46.76,23.06-1.53,34.4-4.51,22.28-14,42.08-24.62,61.94-3.77,7-7.53,14.06-11.35,21.06a8.3,8.3,0,0,1,.55,3.36c-0.18,3.58-.18,7.18-0.12,10.77s0.21,7.09.45,10.62c0.13,1.94.33,3.86,0.52,5.79,0,0.37.06,0.61,0.07,0.78s0,0.26.08,0.5c0.14,0.88.27,1.76,0.43,2.64a73.32,73.32,0,0,0,2.48,9.78l0.1,0.31c0.21,0.43.41,0.86,0.64,1.28s0.4,0.7.62,1c0.34-.46.69-0.91,1-1.38,1.43-2.08,2.79-4.21,4.13-6.35,3.72-5.93,7.28-12,10.79-18,8.45-14.58,16.62-29.33,24.68-44.14-0.06-10.94,0-21.89.27-32.84,0.36-15.06,1-30.12,2.6-45.11,1.69-16.21,3.48-34.57,16.3-46.18,7.29-6.6,17.5-9.85,26.31-4,6.68,4.43,10.35,12.62,11.71,20.29,2.81,15.85-.48,32.43-4.91,47.68-6.88,23.67-19,45-31,66.31-0.06,12.23,0,24.47.28,36.66a11,11,0,0,1-.35,3.09c0,0.19.05,0.38,0.08,0.55a59,59,0,0,0,1.72,7.82c0.06,0.21.37,0.94,0.61,1.56a14.17,14.17,0,0,0,2.58-.91,14.92,14.92,0,0,0,2.59-1.93c5-4.37,8.72-10.25,12.77-15.6,5.81-7.67,11.16-15.69,16.38-23.77,10.27-15.88,19.94-32.15,30.77-47.67,5.74-8.22,19.19-5.57,19.37,5.25,0.3,18,5.27,36.2,3.19,54l0.16-.17c0.59-.66,1.16-1.33,1.73-2,0.14-.16.11-0.11,0.06,0l0.43-.65a72.81,72.81,0,0,0,5.15-8.78c0.31-.64,1.54-3.46,1.51-3.32,0.63-1.56,1.24-3.14,1.86-4.71,4.42-11.26,10-22.71,13-34.61q1-5.9,2.15-11.78c2.12-11.18,21.38-8.55,19.9,2.69-0.12.9-.26,1.8-0.4,2.69h0c-1,5.13-1.93,10.27-2.75,15.42-0.76,4.75-.94,5.92-1.39,9.91-0.43,3.81-.76,7.64-1,11.48s-0.29,7.51-.15,11.27c0.05,1.45.13,2.9,0.25,4.34,0.05,0.64.12,1.28,0.19,1.92,0,0.11,0,.22,0,0.29a44.59,44.59,0,0,0,1.1,4.86c0.16,0.54.35,1.06,0.53,1.59l0,0.06c0.22,0.35.46,0.78,0.66,1.16l0.11,0a0.94,0.94,0,0,1,.43.35h0.08l0.28-.06,0.24-.05,0.79-.42a2.68,2.68,0,0,0,.26-0.15c1.13-.87,1-0.63.76-0.39l0.62-.61c1-.94,1.87-1.9,2.74-2.93,0-.12,1.52-2.2,1.8-2.66a71.08,71.08,0,0,0,3.95-7.46c0.18-.39.35-0.78,0.52-1.17l0.36-.88c0.25-.64.49-1.27,0.73-1.91q0.91-2.44,1.72-4.91,1.65-5,3-10.17c1.73-6.55,3.14-13.19,4.33-19.86q0.84-4.69,1.53-9.4c0.15-1,.28-2,0.42-3,0-.33.09-0.65,0.13-1,0.26-2.17.53-4.34,0.73-6.52,0.53-5.82,4.51-10.77,10.77-10.77,5.44,0,11.3,5,10.77,10.77A288.88,288.88,0,0,1,686.22,428c-2,9.46-4.48,19.4-8.21,28.67a10.53,10.53,0,0,1,3.28,1.42c2.64,1.7,5.24,2.38,8.06,1.56a4.06,4.06,0,0,0,2.61-1.39,17.32,17.32,0,0,0,1.91-4.42c3.6-10.68,6.45-21.59,9.08-32.54q2.41-10,4.57-20.1c1.07-6.62,2.39-13.18,3.82-19.61,1.21-5.44,7.48-8.59,12.64-7.18,5.75,1.58,8.07,7.17,7.18,12.64q-1.56,9.53-3.49,19l0,0.17q-0.19,1.28-.37,2.56v0.1c-0.2,1.57-.39,3.15-0.56,4.73-0.32,2.92-.58,5.85-0.77,8.79a130.55,130.55,0,0,0,0,18c0,0.24.19,1.52,0.2,1.72s0.05,0.39.09,0.58c0.21,1,.4,2.06.67,3.07s0.57,1.86.86,2.8a1.71,1.71,0,0,1,.06.26l0.27,0.33,0.6,0.75,0.54,0c-0.91,0,1.9-.56,2.23-0.52,0.47-.28,2.06-1.13,2.52-1.42l0.2-.13,0,0c0.5-.42,1-0.87,1.44-1.33s2.32-2.53,2.15-2.32a59.77,59.77,0,0,0,4.25-7.1c0.24-.47,1.12-2.37,1.32-2.78s0.88-2.25,1-2.69a124.24,124.24,0,0,0,4.59-16.9c0.82-3.92,1.46-7.87,2.06-11.83,0.37-2.44.71-4.88,1-7.32l0.32-2.41q0.25-2,.5-3.94c3.21-25.79,5.79-51.68,8.08-77.59q-26.58,4.77-53.08,10c-26.54,5.21-54,9.7-79.71,18.44-11.79,4-16.71-14.5-5.12-18.55,12.21-4.27,25-7.13,37.57-10,33.82-7.71,67.94-14.14,102.09-20.25q0.73-8.76,1.43-17.52c0.45-5.62,4.47-10.49,10.45-10.45,12.09,0.07,12.87,13.23,12.4,23.66,19.12-3.35,38.29-6.49,57.55-8.78,5.33-.64,9.87,5,9.87,9.87,0,5.81-4.58,9.2-9.87,9.87l-0.55.07-1,.13-3.51.5q-4.51.65-9,1.34-10.78,1.65-21.54,3.45-11.58,1.92-23.15,3.92c-2,29-5.51,57.81-6.82,86.83-0.3,6.6-.51,13.23-0.27,19.84a74.61,74.61,0,0,0,.78,8.94c0.38,2.4.86,4.8,1.47,7.16,0.32,1.23.67,2.45,1.07,3.66,0,0,.86,2.08.83,2.13,0.28,0.56.58,1.1,0.89,1.64l0.42-.29c7.77-6.73,12.32-18,16.74-27.37,4.88-10.32,22.56-2.81,18.45,7.78-4.88,12.54-11.07,26.69-21.75,35.49-8.15,6.72-19.36,8.56-27.51.64a33.74,33.74,0,0,1-7.53-11.49A62.94,62.94,0,0,1,752,459.3c-8.82,9.94-25.42,16-36.65,6.39a22.16,22.16,0,0,1-2.88-3c-1.55,4-3.51,7.81-6.86,10.85-9.31,8.46-24.23,8.89-34.63,2.2a11.09,11.09,0,0,1-2.28-1.95c-8.91,11.71-25.47,21-38.25,8.7A28.74,28.74,0,0,1,623,469.7c-0.74,1.21-1.52,2.4-2.36,3.55-11.36,15.52-28.44,24-46.39,29.61a103.45,103.45,0,0,1-16.56,5.28c-9.66,2.34-15.18-8.1-12.06-14.93-2.79,3.64-5.64,7.21-8.58,10.68-7.9,9.3-23.83,18.75-35.33,10.1-8.88-6.68-10.43-19.78-11.52-30q-7.94,14.15-16.1,28.17a10.44,10.44,0,0,1-2.35,2.81c-4.92,8-10.84,15.63-20.74,16.44-18.39,1.5-24.82-16.54-26.66-35-6.48,14-15.11,28.63-26.49,39C385,547.09,366.49,552.21,352.19,539.75Zm374.37-204c13.1,0,13.08,20.33,0,20.33S713.48,335.79,726.56,335.79ZM823,524.37c-13.1,0-13.08-20.33,0-20.33S836.13,524.37,823,524.37Zm74.54,98.75c-11.5,3.87-22.6,2.62-31.5-3.36-12.13,12.13-29.53,25.16-45.82,17.66a13.22,13.22,0,0,1-3.58-2.13,10.75,10.75,0,0,1-3.25-5.76c-0.52.82-1.06,1.63-1.62,2.41-7.92,10.87-21.05,14.74-33.28,18.65-8.49,2.71-17.13,5.18-25.86,7.05-13.32,4.21-28.34,4.26-34.52-8.79-8.06,11.41-19.18,20.68-33.22,23.23-4.6.84-9.27-.86-11.34-5a9.69,9.69,0,0,1-1.28-8.54c1.28-4.53,2.2-9.17,3.07-13.8,1.53-8.13,2.23-12.83,2.92-19.45a144.49,144.49,0,0,0,.92-19.85c-0.06-1.65-.18-3.29-0.31-4.93,0-.45,0-0.73-0.05-0.92s-0.11-.4-0.2-0.75c-0.24-1-.46-2-0.71-2.94-0.47.27-.94,0.57-1.4,0.86,0.14,0-1.23,1-1.84,1.64a9.48,9.48,0,0,1-.71.64,9.93,9.93,0,0,1-.56.92c-0.81,1.23-1.6,2.46-2.33,3.74-4,7-5.57,11.55-8.18,19.37s-4.74,15.53-6.69,23.41c-2.2,8.87-4.19,17.83-5.75,26.83-1,5.62-7.86,8.73-12.92,7.34-5.9-1.62-8.21-7.32-7.34-12.92,0.12-.74.22-1.48,0.33-2.22l0-.25,0.09-.72c0.1-.75.19-1.5,0.29-2.25,0.72-5.86,1.29-11.73,1.69-17.62,0.44-6.38.69-12.78,0.56-19.18-0.07-3.24-.22-6.47-0.55-9.69-0.05-.5-0.11-1-0.17-1.5,0-.14,0-0.29-0.06-0.39-0.23-1.31-.46-2.62-0.77-3.91s-0.77-2.55-1.14-3.84a8.87,8.87,0,0,1-.45-0.85l-0.2.07c-0.28.14-.57,0.28-0.84,0.44a4.41,4.41,0,0,1-1,.49c-0.12.14-.33,0.36-0.7,0.72a18.74,18.74,0,0,0-4.56,5.69,69.07,69.07,0,0,0-4.8,9.36c-0.48,1.14-2.5,6.74-3.36,9.45-1.22,3.85-2.29,7.74-3.27,11.65-1.51,6.08-2.77,12.23-3.85,18.4-0.46,7.63-1.08,15.24-3.08,22.77-3,11.16-21.53,9.1-20.5-2.77,0.76-8.66,1.86-17.36,3.37-26a180,180,0,0,1,1.64-18.3q0.29-1.81.59-3.62a99.32,99.32,0,0,1-9.54,7.89c2,14.11-.77,29-9,40.85-8,11.61-20,19.83-34.21,21.22-0.34,0-.67,0-1,0.06a13.65,13.65,0,0,1-3.71,1.24c0.8-.12,1.66-0.24,0,0.08-1.36.26-2.72,0.47-4.09,0.69-4.67.76-9.34,1.47-14,2.27-26,4.43-52.39,9.58-77.12,19-14.25,5.41-30,15.18-44.19,22.89-8.26,4.47-20.43-5.24-14-14,20.14-27.35,31.66-60.55,46.2-91l2-4.18q-7.64-5-15.22-10c-10.52-7.08-.67-24.18,10-17.11,4.63,3.07,9.3,6.06,14,9q7-14.32,14.12-28.57c4.06-8.11,8-16.25,12.42-24.19l2.42-4.39c-25.83,7-51.41,14.93-77.51,20.88-12.05,2.75-17.15-15.51-5.12-18.55,32.89-8.31,65.08-19.15,98.05-27.16,7.09-1.72,15,4.84,12.43,12.43-5.7,16.95-15.79,32.53-23.74,48.5q-8,16-15.78,32c5.42,3.49,10.81,7,16.09,10.74,10.25,7.17.89,23.89-9.94,17l-15-9.52-0.74,1.53c-9.55,20-17.82,41.15-28,61.15,19.46-9.78,40.65-15.48,61.89-20.13q14-3.06,28.09-5.45-0.7-1-1.33-2c-9.43-15.38-8.88-36.56-2.22-52.81,4.47-10.9,12-21.65,22.57-26.76,8.49-6,19.63-8.29,29.28-4.55,8.43,3.26,14.83,10,19.26,17.87A79.2,79.2,0,0,0,592.43,595c1.73-3.67,6.08-5.29,10-4.84a10.41,10.41,0,0,1,8.25,3.68,32.2,32.2,0,0,1,9.81-7.18c6.54-3,14.24-3.8,20.58.19,4.15,2.62,6.95,6.75,8.82,11.24A57.45,57.45,0,0,1,660.32,583c10.43-10.49,28.68-13.31,36,2.13,6,12.77,4.4,28.93,2.9,42.53-0.57,5.14-1.2,10.33-2,15.52,0.77-.83,1.5-1.69,2.24-2.55l0.18-.22c0.17-.22.33-0.44,0.49-0.66,1.36-2,2.66-3.93,3.85-6,1.47-2.57,2.77-5.21,4-7.91l0.21-.46q0.41-1,.81-2c0.56-1.44,1.08-2.89,1.59-4.34a182.2,182.2,0,0,0,7.93-33.7c0.64-8.18,1.45-16.34,2.51-24.49,0.7-11.32.92-22.67,1.69-34,0.66-9.71,1.35-19.43,2-29.14,0.39-5.72,4.53-10.58,10.58-10.58,5.44,0,11,4.87,10.58,10.58-0.79,11.55-1.54,23.1-2.33,34.65-0.61,8.87-.95,17.71-1.45,26.55a15.09,15.09,0,0,1,0,2.37c11.44-3.71,23.8-2.24,34.22,6.66,11.2,9.56,16.72,25.51,16.24,40A53.46,53.46,0,0,1,789.08,625a19.1,19.1,0,0,0,5.62-4.68c2.78-3.58,4.28-8.49,5.79-12.71a120.17,120.17,0,0,0,4.58-17.71,370.11,370.11,0,0,0,5.16-37c1.21-13,20.4-13.5,20.66,0q0.34,17.8,1,35.58c0.32,8.5.66,17,1.16,25.48q0.15,2.52.34,5c0.5-.25,1-0.48,1.48-0.74A54.84,54.84,0,0,0,840,615c0.31-.22,1.66-1.21,1.73-1.24,0.77-.61,1.52-1.24,2.27-1.87,1.85-1.58,3.62-3.23,5.37-4.92q1.66-1.61,3.27-3.27a72.5,72.5,0,0,1-7.15-33.07c0.27-13,5-23.65,14.07-32.86,8.12-8.22,20.65-16.41,32.67-12.29,12.45,4.27,16.4,19.17,14,30.9-2,9.65-7,18.94-12,27.3a191.91,191.91,0,0,1-14.37,20.6,6.34,6.34,0,0,0,1.28.33c0-.06,2,0,2.22,0,0.76,0,1.52,0,2.27-.08a23.53,23.53,0,0,0,2.77-.36,21.09,21.09,0,0,0,5.59-1.85c7.83-4.18,11.56-13.44,16.49-22,5.57-9.7,22.88-3,18.48,7.79C922.78,603,913.75,617.68,897.58,623.12Z" transform="translate(-50.46 -50.46)"/><path class="cls-1" d="M885.46,545.21l-0.1,0-0.11,0-0.12.09,0,0Z" transform="translate(-50.46 -50.46)"/><path class="cls-1" d="M632,604.92l-0.55.13h0.05Z" transform="translate(-50.46 -50.46)"/><polygon class="cls-1" points="579.71 554.74 579.7 554.74 579.71 554.74 579.71 554.74"/><path class="cls-1" d="M842.47,298.15l0.56-.07h0.08Z" transform="translate(-50.46 -50.46)"/><path class="cls-1" d="M736.51,639.22l-0.34-.14A0.78,0.78,0,0,0,736.51,639.22Z" transform="translate(-50.46 -50.46)"/><path class="cls-1" d="M631.31,605.1c1.29,0.28,1,0,.18,0Z" transform="translate(-50.46 -50.46)"/><path class="cls-1" d="M630.66,605.16a0.89,0.89,0,0,0-.23,0c-0.11.06,0,.1,0.54,0l-0.06,0h-0.24Z" transform="translate(-50.46 -50.46)"/><path class="cls-1" d="M375.6,476.07l0.09-.24c0.08-.2.15-0.41,0.21-0.62,0.27-1,.56-1.91.8-2.89a1.92,1.92,0,0,1,.11-0.36c0-.11-0.06-0.24-0.09-0.4-0.36-1.78.17,0.07-.07-1.08a27.9,27.9,0,0,0-.76-2.83l0-.11c-0.14,0-.23,0-0.15-0.12l-0.14,0c-0.42.13-.86,0.25-1.29,0.36s-0.77.18-.9,0.2a1.47,1.47,0,0,1-.57.37c-1.59.85-4.33,2.53-5.08,3.1a46.55,46.55,0,0,0-8.46,8.83,35.74,35.74,0,0,0-1.8,3.11c-0.1.28-.19,0.56-0.26,0.84-0.3,1.19-.66,2.36-0.9,3.57a16.84,16.84,0,0,0-.34,2.27,56.52,56.52,0,0,0,.22,11.68c7.59-7.55,14.34-15.7,19-24.81C375.34,476.69,375.5,476.32,375.6,476.07Z" transform="translate(-50.46 -50.46)"/><path class="cls-1" d="M375.44,476.48l0.2-.53,0,0.12Z" transform="translate(-50.46 -50.46)"/><path class="cls-1" d="M375.58,467.15s0,0,0,0l-0.08-.11A1.07,1.07,0,1,0,375.58,467.15Z" transform="translate(-50.46 -50.46)"/><path class="cls-1" d="M376.14,467.32l-0.43-.18,0.43,0.18h0Z" transform="translate(-50.46 -50.46)"/><path class="cls-1" d="M375.69,475.83l0,0.12Z" transform="translate(-50.46 -50.46)"/><path class="cls-1" d="M375.49,466.94a5.05,5.05,0,0,1-.33-0.52l0.22,0.42Z" transform="translate(-50.46 -50.46)"/><path class="cls-1" d="M376.21,467.39l-0.27,0-0.17,0,0.07,0.15A1.3,1.3,0,0,0,376.21,467.39Z" transform="translate(-50.46 -50.46)"/><path class="cls-1" d="M630.7,664.5l-0.08.64C630.75,664.17,630.77,663.92,630.7,664.5Z" transform="translate(-50.46 -50.46)"/><path class="cls-1" d="M533.7,637.72l-0.12-.05h0Z" transform="translate(-50.46 -50.46)"/><path class="cls-1" d="M533.5,637.64l0.08,0-0.17-.08Z" transform="translate(-50.46 -50.46)"/><path class="cls-1" d="M533.2,637.48l-0.12-.06Z" transform="translate(-50.46 -50.46)"/><path class="cls-1" d="M531.48,635.45c0.34,0.59.76,1.14,1.06,1.75-0.52-1,.13,0-0.07-0.2a2.79,2.79,0,0,0,.6.43l0.5,0.25,1.13,0.34,0.77,0.1c0.38,0,2.32,0,2.2,0A41.31,41.31,0,0,0,543,637a70.19,70.19,0,0,0,12.67-4.79,28.61,28.61,0,0,0-4.3-6.49c-2-2.16-2-2.31-4.67-3.58,1.31,0.63-.91-0.28-1.39-0.4s-0.54-.15-0.64-0.18a4.3,4.3,0,0,1-.76,0,13,13,0,0,0-5.11,1.3,15.65,15.65,0,0,0-5.07,3.76,9.84,9.84,0,0,0-2.69,7.41A3.56,3.56,0,0,1,531.48,635.45Z" transform="translate(-50.46 -50.46)"/><path class="cls-1" d="M375.76,467.37a0.13,0.13,0,0,0-.07.05h0l0.09,0v0Z" transform="translate(-50.46 -50.46)"/><path class="cls-1" d="M630.61,665.14v0.08l-0.06.45Z" transform="translate(-50.46 -50.46)"/><path class="cls-1" d="M526.61,657a24.4,24.4,0,0,1-8.67-5.61,43.14,43.14,0,0,0,.81,16.88,25.19,25.19,0,0,0,3.22,8.1,12.12,12.12,0,0,0,3.5,4c-1.3-1.14,1.14.73,1.69,1.06,0.37,0.22,1.2.58,1.42,0.69,0.65,0.22,1.3.41,2,.59,0.4,0.11.81,0.19,1.22,0.27h0c1.07,0.06,2.12.08,3.19,0.06,0.41,0,1.22-.12,1.54-0.16,0.89-.18,1.77-0.38,2.64-0.64,0.4-.12,2.18-0.72,2.09-0.66,6.74-2.73,12.7-9,15.91-16.83a37,37,0,0,0,2.74-11.67C549.25,657.85,537,661,526.61,657Z" transform="translate(-50.46 -50.46)"/></svg>